<svg xmlns="http://www.w3.org/2000/svg" viewBox="0 0 512 512">
  <rect width="512" height="512" rx="96" fill="#1D9E75"/>
  <rect x="80" y="140" width="352" height="280" rx="24" fill="#fff" opacity="0.95"/>
  <rect x="80" y="140" width="352" height="60" rx="24" fill="#085041"/>
  <rect x="80" y="176" width="352" height="24" fill="#085041"/>
  <circle cx="180" cy="170" r="14" fill="#fff"/>
  <circle cx="332" cy="170" r="14" fill="#fff"/>
  <rect x="120" y="240" width="60" height="40" rx="6" fill="#E1F5EE"/>
  <rect x="200" y="240" width="60" height="40" rx="6" fill="#E1F5EE"/>
  <rect x="280" y="240" width="60" height="40" rx="6" fill="#FAECE7"/>
  <rect x="120" y="300" width="60" height="40" rx="6" fill="#FAECE7"/>
  <rect x="200" y="300" width="60" height="40" rx="6" fill="#E1F5EE"/>
  <rect x="280" y="300" width="60" height="40" rx="6" fill="#E1F5EE"/>
  <rect x="120" y="360" width="60" height="40" rx="6" fill="#E6F1FB"/>
  <rect x="200" y="360" width="60" height="40" rx="6" fill="#FBEAF0"/>
  <rect x="360" y="240" width="40" height="40" rx="6" fill="#EEEDFE"/>
  <rect x="360" y="300" width="40" height="40" rx="6" fill="#EEEDFE"/>
</svg>
